<svg xmlns="http://www.w3.org/2000/svg" xmlns:xlink="http://www.w3.org/1999/xlink" id="svg" version="1.1" viewBox="17.48 25.71 351.67 104.88"><g id="svgg"><path id="path0" d="M17.481 78.149 L 17.481 130.591 193.316 130.591 L 369.152 130.591 369.152 78.149 L 369.152 25.707 193.316 25.707 L 17.481 25.707 17.481 78.149 M118.252 78.149 L 118.252 126.478 69.920 126.478 L 21.588 126.478 21.720 79.086 L 21.851 31.693 23.393 31.248 C 26.433 30.371,43.017 29.978,80.334 29.900 L 118.252 29.820 118.252 78.149 M37.827 51.586 C 34.055 55.359,42.687 65.948,60.536 79.445 C 61.073 79.851,59.006 82.064,51.415 89.214 C 35.745 103.972,34.641 105.713,38.500 109.572 C 42.343 113.415,43.834 112.605,58.517 98.703 L 68.836 88.933 77.991 96.745 C 94.801 111.088,98.831 113.308,100.683 109.243 C 102.633 104.962,100.242 101.238,87.914 89.357 L 78.747 80.522 88.921 70.467 C 102.939 56.613,105.347 51.485,98.277 50.536 C 94.852 50.077,90.898 52.650,82.048 61.096 C 69.996 72.599,70.032 72.598,58.240 62.127 C 46.146 51.389,40.790 48.623,37.827 51.586 M248.213 67.487 C 249.339 69.268,251.120 72.435,252.172 74.524 C 257.553 85.209,258.058 85.091,265.805 71.338 C 269.975 63.934,272.777 61.951,272.722 66.441 C 272.653 72.091,261.064 91.003,257.671 91.003 C 254.547 91.003,243.484 73.157,242.790 66.999 C 242.233 62.064,244.943 62.307,248.213 67.487 M300.257 64.344 C 308.662 65.987,306.225 68.361,295.546 68.933 C 282.237 69.646,281.397 72.885,294.032 74.774 C 304.051 76.272,303.640 78.243,293.006 79.699 C 281.251 81.308,282.840 84.617,295.731 85.370 C 303.325 85.814,305.398 86.471,305.398 88.432 C 305.398 90.809,303.401 91.247,291.737 91.431 L 280.856 91.603 280.483 83.884 C 279.825 70.235,280.787 65.225,284.247 64.275 C 288.204 63.187,294.479 63.214,300.257 64.344 M165.039 64.284 C 169.071 64.915,171.208 65.711,171.208 66.580 C 171.208 68.114,169.521 68.527,161.679 68.911 C 153.291 69.323,151.157 69.931,151.157 71.912 C 151.157 73.955,152.889 74.657,158.980 75.083 C 169.999 75.854,170.496 78.935,159.640 79.179 C 146.461 79.475,148.109 84.476,161.848 85.878 C 167.752 86.481,169.666 87.027,169.666 88.112 C 169.666 89.591,166.446 90.132,156.250 90.364 L 146.177 90.593 145.839 85.834 C 144.912 72.774,145.595 64.998,147.709 64.548 C 148.333 64.416,149.306 64.210,149.871 64.090 C 151.950 63.650,161.795 63.776,165.039 64.284 M198.030 64.270 C 208.159 65.735,206.007 68.363,194.214 68.929 C 186.221 69.313,184.062 69.947,184.062 71.912 C 184.062 73.955,185.794 74.657,191.884 75.083 C 203.543 75.898,203.717 78.307,192.181 79.192 C 183.963 79.823,181.283 81.801,185.714 83.966 C 187.536 84.857,189.478 85.235,197.773 86.314 C 204.207 87.150,206.323 89.056,202.314 90.404 C 200.237 91.102,179.860 91.086,179.160 90.385 C 178.481 89.706,178.237 69.515,178.889 67.942 C 180.274 64.598,188.883 62.946,198.030 64.270 M215.332 64.414 C 216.273 65.547,216.959 71.446,216.963 78.438 L 216.967 85.154 224.807 85.725 C 232.986 86.321,235.476 86.878,235.476 88.112 C 235.476 89.592,232.256 90.132,222.030 90.364 L 211.926 90.594 211.567 86.280 C 210.409 72.380,212.391 60.870,215.332 64.414 M334.864 65.851 C 339.738 67.504,340.637 70.450,338.293 77.096 C 336.344 82.624,336.369 83.514,338.560 86.596 C 343.087 92.963,338.559 93.372,332.463 87.147 C 325.755 80.296,318.771 79.694,318.764 85.966 C 318.762 87.946,317.063 91.003,315.964 91.003 C 314.267 91.003,313.933 88.871,313.716 76.672 L 313.503 64.655 323.204 64.921 C 329.067 65.082,333.680 65.450,334.864 65.851 M320.179 70.007 C 317.530 70.974,317.588 74.212,320.282 75.785 C 325.558 78.866,335.773 75.202,332.375 71.447 C 330.667 69.560,323.666 68.733,320.179 70.007 " stroke="none" fill="#000000" fill-rule="evenodd"/></g></svg>